<?xml version="1.0" encoding="utf-8"?>
<!-- Generator: Adobe Illustrator 23.0.3, SVG Export Plug-In . SVG Version: 6.00 Build 0)  -->
<svg version="1.1" id="Layer_1" xmlns="http://www.w3.org/2000/svg" xmlns:xlink="http://www.w3.org/1999/xlink" x="0px" y="0px"
	 viewBox="0 0 123.2 60" style="enable-background:new 0 0 123.2 60;" xml:space="preserve">
<style type="text/css">
	.st0{fill:none;}
	.st1{fill:#82BA29;}
	.st2{fill:#FFFFFF;}
	.st3{fill:#1A2B4A;}
</style>
<g id="KCB_Group_Logo_1_">
	<rect id="BG" class="st1" width="123.2" height="60"/>
	<g id="KCB">
		<path id="B" class="st2" d="M92.4,42.2h-8.1V18.9h7.4c2.2,0,3.8,0.3,4.9,1.1c1.5,0.9,2.2,2.5,2.2,4.6c0,1.6-0.5,3-1.4,3.9
			l-0.6,0.6l0.7,0.5c1.6,1.2,2.4,3.2,2.4,5.7c0,2.2-0.8,4-2.4,5.2C96.2,41.6,94.4,42.2,92.4,42.2 M88.8,39.9H91
			c3.4,0,4.5-1.1,4.5-4.8c0-2.5-1.9-3.6-3.8-3.6h-2.8V39.9z M88.8,27.9h1.7c0.1,0,0.1,0,0.2,0c0.1,0,0.2,0,0.3,0
			c0.3,0,1.4,0,2.1-0.5c0.8-0.5,1.1-1.4,1.1-2.7c0-3.2-1.7-3.5-3.7-3.5h-1.8V27.9z"/>
		<path id="C" class="st2" d="M74.6,42.6c-7.4,0-11.5-4.3-11.5-12.1c0-3.8,0.9-6.8,2.7-8.8c1.7-2,4.3-3.1,7.4-3.1
			c1.1,0,3.9,0.4,5.9,0.7l0.7,0.1v4.3l-3.5-2.1c-0.6-0.4-2-0.8-3.1-0.8h-0.1c-4.4,0-5.1,5.2-5.2,9.7c-0.1,3.8,0.7,6.6,2.3,8.2
			c1,1,2.4,1.5,4,1.5c2.2,0,3.7-0.8,4.7-1.4l1.6-1.1l-0.6,3.9l-0.4,0.2C78.7,42.2,76.5,42.6,74.6,42.6"/>
		<polygon id="K" class="st2" points="62.8,42.2 57.4,42.2 49.8,31.3 49.8,42.2 45.3,42.2 45.3,18.9 49.8,18.9 49.8,28.8 57.9,18.9 
			62.1,18.9 53.8,29.2 		"/>
	</g>
	<path id="Lion" class="st3" d="M45.3,9.5c-0.4-2.9-2.2-2-1.9-3C43.4,6.2,43.1,5,41.3,5h-36v20.9c0.4,0.2,1.7-0.1,2-0.4
		c1.1-1.4,2.1-3.1,4-3.5c0.5-0.1,1.2-0.1,1.6,0.3c-0.2,0.4-0.7,0.4-1.1,0.5c-1.2,0.4-2.5,1-3.2,2.1c-0.1,0.1,0,0.3,0.1,0.3
		c0.2,0,0.3,0,0.4-0.1c0.6-0.4,1.2-1,2-0.9c0.1,0,0.2,0.2,0.1,0.3c-0.5,0.6-1.2,0.7-1.8,1.1c-0.8,0.7-3.1,1.2-3.4,2.3
		c0,0,1.1,0.1,1.2,0.1c1.1,0.1,1.3-1.2,2.1-1.7c0.3-0.2,0.7-0.5,1.1-0.3c0,0.2-0.1,0.3-0.1,0.4c-1,1-2.1,1.6-3.1,2.6
		c-0.3,0.3-1.5,0.7-1.7,1v3.9c0.8-1.3,2.8-2.9,4.1-3.7c0.1,0,0.4-0.1,0.5,0.1c0.2,0.2,0,0.5,0,0.8c-0.6,1-1.4,1.9-1.9,2.9
		c-0.1-0.5,0.1-0.9,0.3-1.3c0-0.1,0.1-0.2,0-0.3c-0.4,0-0.6,0.5-0.8,0.8c-0.5,1.3-2,2.6-2.3,4v17.7h9.2h2.2c0.6-0.6,1.4-1.3,1.8-2.1
		c0.5-0.7,0.6-1.7,1.3-2.3c0.1,0,0.2-0.1,0.3,0c0.3,0.7,0.1,1.7-0.2,2.3c-0.2,0.5-0.6,0.8-0.6,1.3c0,0.1,0.3,0.2,0.5,0
		c1.2-0.9,1.3-2.5,1.7-4c0.1-0.1,0.1-0.2,0.2-0.2c0.1,0.2,0.1,0.5,0.1,0.7c0,0.2-0.2,0.4-0.1,0.6c0.6,0.2,0.6-0.6,0.8-0.9
		c0.1,0,0.2,0.1,0.2,0.2c0.1,0.8-0.3,1.4-0.8,1.9c-0.2,0.2-0.7,0.3-0.6,0.6c0.1,0.2,0.5,0.2,0.7,0.1c0,0,0.1,0.1,0,0.2
		c-0.2,0.4-1,1.2-1.4,1.5h2.1c1.1-0.7,2.2-1.7,3-2.7l0,0l0.1-0.1c0.6-0.8,1.1-1.6,1.7-2.5c0.5-0.9,1-1.9,0.7-3
		c-0.3-0.6-1-0.4-1.5-0.3c-0.2-0.1-0.5-0.2-0.7-0.5c-0.1-0.2,0-0.5-0.2-0.6c-0.5-0.1-0.9,0.3-1.3,0.7c-0.1,0.1-0.3,0.2-0.5,0.1
		c0-1,0.9-1.6,1.1-2.6c0-0.2-0.2-0.3-0.3-0.4c-0.7,0-1,0.7-1.5,1.1l-0.2,0c-0.1-0.1-0.2-0.4-0.1-0.6c0.1-0.6,0.5-1.2,0.9-1.7
		c1.6-2.5,5-2.5,5-2.5c3.2,0,5.4,2.1,5.9,2.1c0.1,0,0.4-0.2,0.4-0.7c0-0.5-0.2-0.9-0.5-1c-0.1,0,0.2,0.4-0.5,0.2
		c-2.9-0.7-4.9-2.6-4.7-4.4c0.2-1.8-0.2-2.6,3.1-4c0.5-0.2,1.2-0.2,1.1-1.5c0,0-0.1-0.4-0.4-0.4c-0.1,0-0.3,0.1-0.3,0.3
		c0,0,0.2,0.3-0.3,0.3c-0.4,0-0.2-0.5-1.3-0.5c-0.9,0-1.2,0.2-1.2,0.2c-0.6,0.3-1.3,0.2-1.3,0.2s-0.7,0.1-1.3-0.2
		c0,0-0.3-0.1-1.3-0.2c-1.1,0-0.9,0.5-1.3,0.5c-0.2,0-0.3-0.2-0.2-0.4c0-0.1,0.2-0.3-0.5-0.7c-0.5-0.3-0.3-0.9-0.2-1.1
		c0.6-1.1,0.7-1.6,0.8-2.1c0.1-0.8-1.4-2.6-1.7-3.1c-0.5-0.9,0-1.3-1.8-1.5c-1.9-0.2-2.4-1.6-2.4-2c0-0.1,0-0.3,0.3-0.1
		c0.6,0.3,1.1,1.5,2.1,1.5c1,0,2.1,0.2,2.3,0.6c0.4,0.9,0.9,1.1,1.1,1.1c0.7,0.1-0.2-1.5,0.1-1.8c0.2-0.2,0.4-0.1,0.6-0.1
		c0.6,0.1,1.4,0.5,1.7,1c0.1,0.1,0.6,0.1,0.7-0.2c0.3-1.4,0.8-1.3,1.4-1.2c0.5,0.1,0.7,0.1,0.7,0.8c0,0.5,0.4,0.7,0.7,0.6
		c0.6-0.1,0.9-1.3,1.5-1.4c0.2,0,0.2,0,0.3,0.1c0.1,0.2-0.5,0.6-0.3,1c0.1,0.3,0.3-0.2,0.5-0.1c0.5,0.2,0.2,1.3,0.6,1.2
		c0.6,0,0.5-0.4,0.8-0.8c0.3-0.4,0.6-0.5,0.9-0.6c1-0.3,2.1-0.6,3-1c2.2-1.2,0.8-4.4-0.9-6.5c-0.4-0.5,0.2-0.9,0.7-0.4
		c1,1,1.6,2.6,2.4,2.6c0.4,0,2.8-0.6,3.9-1.6C45,13.1,45.5,11.1,45.3,9.5 M19.9,35.2c0.7-1.4,3.6-3.6,5.1-3.2c2.5,0.7,2.9,2.7,3,3.6
		c0.3,3.1-3.7,5-3.9,4.9c-0.2-0.1,0-0.3,0-0.4c0-0.1-0.1-0.2-0.2-0.2C23,39.9,23,41,22.4,41.6c-0.2,0-0.3-0.1-0.4-0.2
		c-0.3-0.5,0.5-0.5,0.6-0.9c0.1-0.2,0.1-0.6-0.1-0.7c-0.2-0.1-0.4-0.1-0.6,0c-0.3,0.2-0.3,0.9-0.8,0.7c-0.1,0-0.3-0.5-0.2-0.7
		c0.4-0.5,1.2-0.4,1.3-1.2c0-0.5,0.4-0.4,0.7-0.5c0.3-0.1,0.3-0.4,0.4-0.7c0.2-0.6,0.8-0.5,0.8-0.8c0-0.2,0-0.4-0.2-0.5
		c-0.3-0.1-0.5,0.1-0.7,0.2c-0.2,0.1-0.1,0.4-0.3,0.5c-0.3,0.1-0.5,0.2-0.7,0.2c-0.4,0.1-0.4,0.5-0.5,0.9c0,0.2-0.4,0.1-0.6,0.2
		c-0.4,0.1-0.5,0.5-0.6,0.8c0,0,0,0.1-0.1,0.1c-0.2,0-0.3-0.2-0.4-0.3c-0.1-0.1-0.2-0.2-0.1-0.3c0.1-0.1,0.1-0.2,0.3-0.2
		c0.2-0.1,0.4-0.4,0.3-0.6C20.5,37.1,21,37,21,36.8c0-0.1,0-0.3-0.2-0.4c-0.3-0.2-0.6,0.2-0.9,0.3c-0.1,0-0.3-0.1-0.3-0.3
		C19.5,36,19.8,35.6,19.9,35.2 M16.8,6.7c1.5,0.4,3,1.2,3.9,2.6c0.8,1.2,1,2.7,2.4,3.5c0.2,0.2,0.4,0.3,0.6,0.4
		c-0.3,0-0.6-0.1-0.9-0.3c-0.1,0-0.2-0.2-0.4-0.1c-0.1,0,0,0.1-0.1,0.2c0.1,0.1,0.2,0.2,0.3,0.3c-0.1,0.1-0.1,0.1-0.2,0.2
		c-1.4-0.6-1.6-2.1-2.3-3.2c-0.4-0.6-0.7-1.3-1.4-1.7c-0.1,0-0.2,0.1-0.2,0.2c0.1,0.3,0.4,0.5,0.6,0.8c0.4,0.7,0.7,1.3,0.7,2.2
		c-0.1,0.1,0,0.2-0.2,0.3c-0.2,0.1-0.4-0.1-0.5-0.3c-0.7-1-0.8-2.3-1.8-3.2c0,0-0.1,0-0.1,0c-0.3,0.3,0,0.8,0,1.2v0.3
		c-0.6-1-1.1-2-2.3-2.5c-0.5-0.2-2.8-0.1-3.9,1.1c0,0-0.1,0-0.1-0.1C11.2,7.7,12.3,5.6,16.8,6.7 M16.1,13.4c-1.6-0.5-3-1.5-4.5-2.2
		c-0.3-0.1-0.6-0.2-0.9,0c-0.2,0.3,0.2,0.3,0.3,0.5C10.3,11.6,9.6,11.8,9,12c-0.1,0-0.3,0.1-0.4-0.1c0-0.4,0.3-0.7,0.6-1
		c0.6-0.7,1.5-0.8,2.4-0.9l0,0l0,0c1,0.1,1.9,0.3,2.7,0.9c1.3,0.8,2.4,2,3.6,2.9C17.3,13.9,16.7,13.6,16.1,13.4 M25.5,17.6
		c0.1,0.7-0.3,2.2-0.6,2.2c-0.4,0-0.5-0.5-0.6-1.1c0-0.8,0.5-1.5-0.1-1.7c-0.8,0-0.5,1.4-1.1,1.4c-0.4,0-0.7-0.4-1.2-0.5
		c-2.3-0.7-3.3,1.3-3.7,1.2c-0.8-0.2-0.2-0.7,0-1c0.6-0.8,2-1.4,3.2-1.7c1-0.2,1.6-0.8,2.9-0.8C25.7,15.8,25.4,17,25.5,17.6
		 M37.6,17.3c0.2,0.1,0.4,0.3,0.3,0.6c-0.1,0.3-0.3,0.1-0.6,0c-1.5-0.4-1.9-0.3-2.7,0.2c-0.6,0.3-0.7-0.3-0.9-0.7
		c-0.1-0.2-0.3-0.5-0.5-0.4c-0.1,0.1-0.1,0.7,0,0.8c0.1,0.5-0.2,1-0.5,1.2c-0.3,0-0.4-0.2-0.5-0.5c-0.5-0.9-0.7-2.6,0.3-2.9
		c0.7-0.2,2.2-0.1,2.9,0.6C36.4,17.1,37.3,17.2,37.6,17.3 M37.6,8.7c0.6-1.1,1.8-1.3,2.9-1.1c0.5,0.1,0.9,0.4,1.3,0.6
		c0,0.3,0.4,0.3,0.4,0.6l0,0C40.8,8.3,38.9,7.9,37.6,8.7 M41.4,11.5c-0.6-0.1-1.2-0.2-1.7-0.4c0.8-0.4,2.2-1.3,2.9-0.2
		C42.4,11.4,41.8,11.4,41.4,11.5"/>
</g>
</svg>
